<?xml version="1.0" encoding="UTF-8"?>
<!DOCTYPE svg PUBLIC "-//W3C//DTD SVG 1.1//EN" "http://www.w3.org/Graphics/SVG/1.1/DTD/svg11.dtd">
<!-- Creator: CorelDRAW -->
<svg xmlns="http://www.w3.org/2000/svg" xml:space="preserve" width="3.32907in" height="1.70667in" version="1.1" style="shape-rendering:geometricPrecision; text-rendering:geometricPrecision; image-rendering:optimizeQuality; fill-rule:evenodd; clip-rule:evenodd"
viewBox="0 0 1643.73 842.67"
 xmlns:xlink="http://www.w3.org/1999/xlink"
 xmlns:xodm="http://www.corel.com/coreldraw/odm/2003">
 <defs>
  <style type="text/css">
   <![CDATA[
    .fil0 {fill:#E31E24}
    .fil2 {fill:#009846}
    .fil1 {fill:#FEFEFE;fill-rule:nonzero}
    .fil3 {fill:#2B2A29;fill-rule:nonzero}
   ]]>
  </style>
 </defs>
 <g id="Layer_x0020_1">
  <metadata id="CorelCorpID_0Corel-Layer"/>
  <g id="_2097963523168">
   <g>
    <path class="fil0" d="M835.98 280.77l-0 281.13 -274.08 0 0.01 274.08 -281.13 -0.01 -0 -146.78c66.21,-198.55 185.13,-303.88 195.79,-315.3 100.66,15.5 168.29,-28.58 213.7,-93.11l145.71 -0.01zm-560.34 281.13l-268.94 0 0 -281.12 274.08 0 -0 -274.08 281.12 0.01 0 71.53c-172.32,111.27 -126.19,235.91 -104.69,280.44 -86.37,42.19 -145.49,130.82 -181.57,203.23z"/>
    <path class="fil1" d="M842.67 280.77l-0 287.84 -274.07 0 0.01 274.06 -294.51 -0.01 -0 -153.47 0.34 -2.1c61.56,-184.61 168.31,-289.32 193.04,-313.58 1.98,-1.94 3.41,-3.34 4.19,-4.19l2.44 -2.61 3.47 0.53c45.53,7.01 84,1.53 116.49,-12.63 37.38,-16.29 67.1,-44.13 90.72,-77.69l1.99 -2.83 155.9 -0.01 0 6.69zm-13.39 274.4l0 -267.71 -135.55 0.01c-24.61,34.16 -55.51,62.52 -94.32,79.43 -33.95,14.79 -73.77,20.76 -120.48,14.12 -0.61,0.6 -1.3,1.28 -2.07,2.04 -24.26,23.8 -128.83,126.38 -189.4,307.22l0 138.99 267.74 0.01 -0.01 -274.11 274.08 0zm-553.64 13.41l-275.64 0c0,-98.18 0,-196.36 0,-294.53l274.08 0 -0 -274.06 294.53 0.01 0 81.87 -3.1 2c-84.17,54.35 -114.93,111.56 -122.01,160.55 -7.06,48.83 9.32,89.77 19.73,111.33l2.91 6.02 -6 2.93c-42.25,20.64 -77.9,52.7 -107.41,88.5 -29.68,35.99 -53.21,75.82 -71.08,111.68l-1.84 3.7 -4.17 0zm-262.25 -13.38l258.1 -0c17.98,-35.57 41.44,-74.77 70.91,-110.5 29.28,-35.5 64.44,-67.51 105.98,-89.09 -10.94,-24.11 -25.11,-64.88 -18.14,-113.07 7.47,-51.67 39.14,-111.59 124.95,-167.92l0 -61.22 -267.71 -0.01 0 274.11 -274.07 0 -0 267.71z"/>
    <path class="fil2" d="M707.39 63.38c0,0 -305.98,33.63 -231.72,283.2 80.35,-15.12 241.18,14.21 231.72,-283.2z"/>
    <path class="fil1" d="M700.88 71.05c-44.86,6.86 -279.85,53.29 -220.37,267.9 9.3,-1.46 19.44,-2.49 30.14,-3.57 80.99,-8.21 195.71,-19.87 190.23,-264.33zm-231.64 277.45c-76.56,-257.3 236.46,-291.68 237.36,-291.78l7.25 -0.86 0.23 7.32c8.41,264.21 -115.16,276.73 -202.12,285.54 -12.73,1.29 -24.64,2.5 -35.06,4.46l-5.94 1.12 -1.72 -5.79z"/>
    <path class="fil1" d="M612.55 178.28l7.11 8.32c-0.06,-1.11 -0.13,-2.21 -0.22,-3.32l-6.89 -5z"/>
    <path class="fil1" d="M619.32 202.76c0.25,-2.11 0.4,-4.22 0.47,-6.34l-19.86 -15.2 19.4 21.55z"/>
    <path class="fil1" d="M616.69 215.72c0.66,-2.25 1.23,-4.55 1.68,-6.91l-30.14 -23.79 28.46 30.71z"/>
    <path class="fil1" d="M612.52 226.77c1.01,-2.16 1.93,-4.39 2.75,-6.66l-36.88 -29.58 34.13 36.24z"/>
    <path class="fil1" d="M607.07 236.41c1.31,-1.95 2.53,-3.98 3.65,-6.07l-41.24 -33.43 37.59 39.5z"/>
    <path class="fil1" d="M571.19 253.55l-16.86 -12.23 10.79 12.6c2.03,-0.06 4.06,-0.18 6.07,-0.38z"/>
    <path class="fil1" d="M585.51 250.89l-29.25 -22.39 21.73 24.15c2.53,-0.44 5.03,-1.02 7.52,-1.76z"/>
    <polygon class="fil1" points="597.4,246.75 559.11,216.54 589.69,249.52 "/>
    <path class="fil1" d="M605.01 239.32l-41.18 -33.03 36.48 38.73c1.66,-1.81 3.23,-3.71 4.7,-5.7z"/>
    <path class="fil1" d="M633.44 134.31c0.31,2.29 0.7,4.59 1.14,6.88l14.48 10.85 -15.62 -17.73z"/>
    <path class="fil1" d="M662.89 150.2l-30.06 -32.62c-0.26,2.95 -0.28,5.94 -0.12,8.96l30.18 23.66z"/>
    <path class="fil1" d="M509.82 271.08c-0.41,-0 -0.8,-0 -1.21,-0.01l22.19 16.81 -14.78 -16.59c-0.55,-0.03 -1.11,-0.06 -1.67,-0.08 -1.57,-0.07 -3.09,-0.11 -4.54,-0.13z"/>
    <path class="fil1" d="M492.91 272.44l37.91 30.05 -29.04 -31.19c-3.18,0.22 -6.14,0.6 -8.88,1.14z"/>
    <path class="fil1" d="M511.57 266.29c3.95,0.08 12.21,0.58 20.36,0.8 -0.78,-3.16 -1.54,-6.35 -2.23,-9.55 -6.72,-0.24 -13.44,-0.23 -20.12,0.51 -6.8,0.74 -12.93,2.4 -17.86,4.51 -6.44,2.74 -12.29,6.7 -17.16,12.15 4.15,-2.82 8.72,-4.77 13.52,-6.08 7.53,-2.06 15.61,-2.51 23.49,-2.35z"/>
    <path class="fil1" d="M629.24 135.57c0.62,3.9 2.25,12.02 3.59,20.06 -3.24,-0.33 -6.5,-0.65 -9.77,-0.89 -1.16,-6.62 -2.07,-13.28 -2.26,-19.99 -0.2,-6.84 0.6,-13.14 2.01,-18.32 1.82,-6.75 4.95,-13.09 9.67,-18.66 -2.22,4.5 -3.53,9.29 -4.15,14.23 -1.01,7.74 -0.34,15.81 0.91,23.59z"/>
    <path class="fil1" d="M554.47 266.52c6.27,-0.61 12.44,-1.7 18.37,-3.55 1.41,-0.44 2.82,-0.92 4.21,-1.46 1.07,-0.44 2.12,-0.92 3.13,-1.43 1.05,-0.5 2.07,-1.03 3.07,-1.59 2.04,-1.12 4,-2.36 5.9,-3.68 -2.46,0.82 -4.92,1.48 -7.39,2.02 -1.61,0.35 -3.22,0.64 -4.84,0.88 -2.61,0.4 -5.22,0.67 -7.84,0.85 -5.19,0.35 -10.4,0.33 -15.63,0.15 0.2,1.48 0.39,2.98 0.59,4.49 0.14,1.11 0.29,2.21 0.44,3.32z"/>
    <path class="fil1" d="M637.88 176.79c-2.72,-0.11 -5.43,-0.28 -8.11,-0.44 -2.08,-0.12 -4.14,-0.24 -6.2,-0.34 1.95,17.3 1.78,30.87 -4.32,47.29 -9.24,23.99 -27.96,40.36 -50.35,46.07 -2.59,0.65 -5.61,1.04 -7.96,1.83 29.57,2.37 60.6,-13.3 73.21,-40.66 8.1,-17.5 7.52,-34.99 3.73,-53.75z"/>
    <path class="fil1" d="M621.92 162.76c-18.95,0.96 -29.92,5.38 -39.46,12.06 13.73,-4.55 27.45,-4.28 40.54,-3.68 6.44,0.33 13.03,0.8 18.85,0.98 20.57,0.75 40.78,-1.08 55.14,-17.16 -16.61,11.33 -38.5,8.15 -57.37,7.61 -5.53,-0.12 -11.25,-0.2 -17.7,0.19z"/>
    <path class="fil1" d="M550.66 275.22c-2.1,-18.42 -5.34,-34.38 -2.96,-50.97 3.84,-26.79 20.23,-49.98 44.49,-60.39 9.92,-4.25 14.3,-4.02 18.43,-5.4 -29.57,-2.37 -60.61,13.31 -73.21,40.65 -1.99,4.33 -3.58,8.97 -4.69,13.91 -4.82,21.38 1.5,42.91 6.65,63.87 4.51,18.3 7.85,38.71 -1.81,55.96 3.59,-6.41 17.86,-13.51 13.12,-57.64z"/>
   </g>
   <path class="fil3" d="M886.33 266.45l52.43 0c11.83,0 20.85,0.92 27.04,2.8 8.32,2.53 15.48,7.03 21.41,13.52 5.97,6.45 10.47,14.37 13.59,23.76 3.08,9.35 4.64,20.93 4.64,34.65 0,12.09 -1.46,22.46 -4.38,31.2 -3.55,10.69 -8.62,19.32 -15.21,25.91 -4.97,5.02 -11.7,8.91 -20.15,11.71 -6.33,2.08 -14.78,3.11 -25.39,3.11l-53.99 0 0 -146.66zm28.83 24.78l0 97.09 21.38 0c7.99,0 13.75,-0.48 17.3,-1.4 4.67,-1.2 8.52,-3.24 11.57,-6.11 3.08,-2.87 5.57,-7.58 7.49,-14.13 1.96,-6.56 2.92,-15.53 2.92,-26.87 0,-11.33 -0.96,-20.01 -2.92,-26.08 -1.92,-6.08 -4.64,-10.79 -8.12,-14.2 -3.48,-3.38 -7.89,-5.7 -13.26,-6.9 -3.98,-0.92 -11.83,-1.4 -23.5,-1.4l-12.86 0zm114.57 1.23l0 -26.01 27.24 0 0 26.01 -27.24 0zm0 120.64l0 -106.31 27.24 0 0 106.31 -27.24 0zm75.53 -73.53l-24.66 -4.5c2.78,-10.38 7.59,-18.06 14.38,-23.04 6.79,-4.98 16.9,-7.48 30.29,-7.48 12.16,0 21.24,1.47 27.21,4.44 5.93,2.97 10.14,6.73 12.56,11.3 2.42,4.57 3.65,12.94 3.65,25.16l-0.4 32.77c0,9.32 0.43,16.22 1.29,20.65 0.86,4.44 2.49,9.18 4.87,14.24l-27.04 0c-0.7,-1.84 -1.59,-4.57 -2.62,-8.19 -0.43,-1.67 -0.76,-2.76 -0.96,-3.28 -4.64,4.71 -9.61,8.23 -14.91,10.58 -5.3,2.36 -10.94,3.55 -16.94,3.55 -10.57,0 -18.92,-2.97 -25.02,-8.91 -6.1,-5.91 -9.15,-13.41 -9.15,-22.5 0,-5.97 1.39,-11.33 4.18,-16.04 2.78,-4.68 6.66,-8.3 11.7,-10.79 5.01,-2.49 12.23,-4.68 21.67,-6.55 12.73,-2.46 21.58,-4.78 26.48,-6.9l0 -2.83c0,-5.46 -1.29,-9.35 -3.88,-11.71 -2.62,-2.32 -7.52,-3.48 -14.71,-3.48 -4.87,0 -8.65,0.99 -11.37,3.01 -2.75,1.98 -4.94,5.5 -6.63,10.51zm36.59 22.74c-3.48,1.19 -9.01,2.63 -16.6,4.3 -7.56,1.67 -12.53,3.31 -14.85,4.88 -3.55,2.63 -5.34,5.91 -5.34,9.9 0,3.96 1.42,7.34 4.27,10.21 2.85,2.87 6.46,4.3 10.87,4.3 4.91,0 9.61,-1.67 14.09,-4.98 3.28,-2.56 5.47,-5.63 6.49,-9.32 0.7,-2.39 1.06,-6.96 1.06,-13.69l0 -5.6zm51.14 57.56l31.22 3.89c0.53,3.79 1.72,6.38 3.58,7.82 2.62,2.01 6.69,3.04 12.26,3.04 7.13,0 12.46,-1.09 16.04,-3.31 2.39,-1.47 4.21,-3.82 5.44,-7.1 0.83,-2.32 1.26,-6.66 1.26,-12.9l0.13 -15.53c-8.22,11.57 -18.56,17.34 -31.02,17.34 -13.85,0 -24.85,-6.04 -32.94,-18.09 -6.36,-9.53 -9.55,-21.41 -9.55,-35.57 0,-17.82 4.18,-31.41 12.5,-40.79 8.32,-9.39 18.69,-14.1 31.09,-14.1 12.76,0 23.3,5.77 31.58,17.31l0 -15.06 25.45 0 0 95.31c0,12.53 -1,21.92 -3.02,28.1 -1.99,6.21 -4.81,11.06 -8.45,14.61 -3.61,3.52 -8.45,6.32 -14.52,8.3 -6.07,2.01 -13.72,3 -22.97,3 -17.5,0 -29.9,-3.11 -37.22,-9.29 -7.32,-6.21 -10.97,-14.03 -10.97,-23.55 0,-0.92 0.03,-2.08 0.1,-3.41zm24.46 -62.06c0,11.27 2.12,19.49 6.33,24.72 4.24,5.22 9.48,7.85 15.68,7.85 6.63,0 12.26,-2.7 16.84,-8.06 4.61,-5.36 6.89,-13.28 6.89,-23.8 0,-10.99 -2.19,-19.15 -6.6,-24.48 -4.37,-5.32 -9.94,-7.99 -16.67,-7.99 -6.53,0 -11.9,2.63 -16.14,7.85 -4.21,5.22 -6.33,13.18 -6.33,23.9zm193.44 55.3l-27.24 0 0 -54.18c0,-11.47 -0.59,-18.88 -1.76,-22.22 -1.19,-3.38 -3.08,-5.97 -5.73,-7.85 -2.65,-1.88 -5.83,-2.8 -9.54,-2.8 -4.77,0 -9.05,1.33 -12.83,3.99 -3.81,2.66 -6.4,6.21 -7.79,10.58 -1.42,4.4 -2.12,12.53 -2.12,24.41l0 48.06 -27.24 0 0 -106.31 25.26 0 0 15.6c9.05,-11.91 20.41,-17.85 34.17,-17.85 6.03,0 11.57,1.13 16.57,3.35 5.04,2.25 8.82,5.09 11.37,8.54 2.59,3.48 4.37,7.41 5.37,11.81 1.03,4.4 1.52,10.69 1.52,18.88l0 65.99zm21.24 -54.45c0,-9.35 2.22,-18.4 6.69,-27.14 4.47,-8.77 10.8,-15.43 18.99,-20.04 8.19,-4.61 17.3,-6.93 27.41,-6.93 15.61,0 28.37,5.22 38.34,15.67 9.98,10.48 14.95,23.66 14.95,39.63 0,16.11 -5.04,29.46 -15.08,40.04 -10.07,10.58 -22.73,15.88 -38.01,15.88 -9.45,0 -18.46,-2.22 -27.04,-6.62 -8.55,-4.4 -15.08,-10.85 -19.55,-19.39 -4.47,-8.5 -6.69,-18.88 -6.69,-31.1zm28.04 1.5c0,10.55 2.42,18.64 7.26,24.24 4.87,5.63 10.84,8.43 17.96,8.43 7.09,0 13.06,-2.8 17.86,-8.43 4.81,-5.6 7.23,-13.76 7.23,-24.44 0,-10.41 -2.42,-18.44 -7.23,-24.03 -4.81,-5.63 -10.77,-8.43 -17.86,-8.43 -7.13,0 -13.09,2.8 -17.96,8.43 -4.84,5.6 -7.26,13.69 -7.26,24.24zm87.13 23.04l27.44 -4.3c1.16,5.43 3.51,9.56 7.09,12.36 3.55,2.83 8.55,4.23 14.95,4.23 7.06,0 12.36,-1.33 15.94,-3.99 2.39,-1.88 3.58,-4.4 3.58,-7.54 0,-2.12 -0.66,-3.89 -1.96,-5.29 -1.36,-1.33 -4.41,-2.6 -9.11,-3.72 -22.04,-5.02 -35.99,-9.6 -41.89,-13.72 -8.18,-5.77 -12.26,-13.76 -12.26,-23.97 0,-9.25 3.55,-17 10.61,-23.28 7.06,-6.28 18,-9.42 32.81,-9.42 14.12,0 24.63,2.39 31.48,7.14 6.86,4.78 11.6,11.81 14.18,21.13l-25.65 4.92c-1.09,-4.16 -3.22,-7.38 -6.3,-9.59 -3.08,-2.21 -7.49,-3.31 -13.22,-3.31 -7.23,0 -12.39,1.02 -15.54,3.11 -2.09,1.47 -3.11,3.38 -3.11,5.7 0,2.01 0.89,3.72 2.72,5.12 2.49,1.88 11.01,4.51 25.58,7.92 14.58,3.41 24.76,7.58 30.52,12.53 5.73,4.98 8.58,11.98 8.58,20.93 0,9.73 -3.94,18.13 -11.87,25.12 -7.89,7 -19.59,10.52 -35.1,10.52 -14.05,0 -25.19,-2.94 -33.41,-8.77 -8.19,-5.84 -13.55,-13.76 -16.07,-23.8zm-660.68 190.36l0 -145.43 28.83 0 0 120.64 71.39 0 0 24.78 -100.22 0zm140.75 -73.53l-24.66 -4.51c2.78,-10.38 7.65,-18.12 14.38,-23.04 6.74,-4.93 16.9,-7.48 30.29,-7.48 12.16,0 21.24,1.47 27.21,4.44 5.93,2.97 10.2,6.78 12.56,11.3 2.36,4.52 3.65,12.94 3.65,25.16l-0.4 32.77c0,9.32 0.49,16.27 1.29,20.65 0.8,4.38 2.49,9.18 4.87,14.24l-27.04 0c-0.7,-1.84 -1.59,-4.57 -2.62,-8.19 -0.43,-1.67 -0.76,-2.76 -0.96,-3.28 -4.64,4.71 -9.61,8.23 -14.91,10.58 -5.3,2.36 -10.94,3.55 -16.94,3.55 -10.57,0 -18.92,-2.97 -25.02,-8.91 -6.1,-5.91 -9.15,-13.41 -9.15,-22.5 0,-5.97 1.39,-11.33 4.18,-16.04 2.78,-4.68 6.66,-8.29 11.7,-10.79 5.01,-2.49 12.23,-4.68 21.67,-6.55 12.73,-2.46 21.58,-4.78 26.48,-6.9l0 -2.83c0,-5.46 -1.29,-9.35 -3.88,-11.71 -2.62,-2.32 -7.52,-3.48 -14.71,-3.48 -4.87,0 -8.65,0.99 -11.37,3.01 -2.75,1.98 -4.94,5.5 -6.63,10.51zm36.59 22.74c-3.48,1.19 -9.01,2.63 -16.6,4.3 -7.56,1.67 -12.53,3.31 -14.85,4.88 -3.55,2.63 -5.34,5.91 -5.34,9.9 0,3.96 1.48,7.4 4.27,10.21 2.79,2.81 6.46,4.3 10.87,4.3 4.9,0 9.61,-1.67 14.08,-4.98 3.28,-2.56 5.47,-5.63 6.49,-9.32 0.7,-2.39 1.06,-6.96 1.06,-13.69l0 -5.6zm52.53 50.8l0 -146.66 27.24 0 0 52.91c8.42,-9.87 18.36,-14.82 29.89,-14.82 12.56,0 22.17,2.27 30.33,11.6 8.16,9.33 12.33,22.87 12.33,40.45 0,18.16 -4.18,32.16 -12.56,41.99 -8.38,9.8 -17.77,17.18 -29.73,17.18 -5.9,0 -11.7,-1.57 -17.43,-4.68 -5.73,-3.14 -10.67,-7.65 -14.81,-13.59l0 15.6 -25.25 0zm26.84 -55.2c0,11.03 1.69,19.22 5.07,24.48 4.74,7.51 11,11.26 18.86,11.26 6.03,0 10.35,-5.13 14.62,-10.46 4.24,-5.33 6.36,-13.72 6.36,-25.16 0,-12.19 -2.21,-21.02 -6.43,-26.36 -4.21,-5.33 -8.92,-5.62 -15.61,-5.62 -6.56,0 -12,2.63 -16.34,7.89 -4.34,5.26 -6.53,13.25 -6.53,23.96z"/>
  </g>
 </g>
</svg>
